<?xml version="1.0" standalone="no"?>
<!DOCTYPE svg PUBLIC "-//W3C//DTD SVG 20010904//EN"
 "http://www.w3.org/TR/2001/REC-SVG-20010904/DTD/svg10.dtd">
<svg version="1.0" xmlns="http://www.w3.org/2000/svg"
 width="1024.000000pt" height="1024.000000pt" viewBox="0 0 1024.000000 1024.000000"
 preserveAspectRatio="xMidYMid meet">

  <g transform="translate(0.000000,1024.000000) scale(0.100000,-0.100000)"
  fill="#FFFFFF" stroke="none">
    <path d="M0 5120 l0 -5120 5120 0 5120 0 0 5120 0 5120 -5120 0 -5120 0 0
-5120z m5364 3365 c216 -33 391 -87 591 -184 349 -169 610 -397 818 -711 234
-355 342 -770 317 -1215 -22 -382 -143 -729 -369 -1060 l-88 -130 472 -475
c259 -261 481 -491 493 -511 43 -71 38 -166 -10 -240 -31 -46 -117 -89 -177
-89 -94 1 -106 11 -617 522 -274 273 -484 475 -488 469 -17 -26 -234 -160
-361 -221 -165 -81 -315 -132 -480 -165 -549 -110 -1088 -5 -1547 301 -582
389 -908 999 -908 1699 0 456 143 879 419 1240 68 90 235 258 331 335 316 251
711 413 1100 450 124 12 379 4 504 -15z m-1186 -5396 c66 -23 85 -114 35 -169
-86 -95 -231 16 -169 129 25 46 75 61 134 40z m1865 -29 c47 -53 26 -141 -42
-169 -80 -34 -169 55 -139 140 25 73 127 89 181 29z m1637 -480 l0 -510 -80 0
-80 0 0 41 0 41 -28 -29 c-44 -48 -89 -66 -175 -71 -71 -4 -82 -2 -142 27 -76
38 -125 90 -169 181 -29 60 -31 73 -31 170 0 93 3 112 27 162 58 124 176 208
292 208 89 0 135 -16 183 -65 l43 -42 0 198 0 199 80 0 80 0 0 -510z m-5979
130 c105 -256 146 -346 152 -333 4 10 67 167 141 348 l133 330 116 3 117 3 0
-498 0 -498 -85 0 -85 0 0 355 0 355 -131 -310 c-72 -170 -138 -329 -147 -353
l-17 -43 -54 3 -55 3 -143 345 -142 345 -1 -347 0 -347 -85 -3 -85 -3 0 498 0
497 114 0 114 0 143 -350z m4077 268 l3 -78 -221 0 -220 0 0 -135 0 -135 215
0 216 0 -3 -76 -3 -76 -212 2 -213 1 0 -208 0 -208 -90 0 -90 0 0 498 0 497
308 -2 307 -3 3 -77z m-2761 -208 c72 -36 134 -100 172 -180 22 -48 26 -68 26
-160 0 -93 -3 -111 -27 -162 -35 -76 -107 -151 -177 -185 -49 -25 -68 -28
-151 -28 -88 0 -101 3 -162 33 -115 56 -194 175 -205 309 -15 182 110 359 284
403 67 16 171 3 240 -30z m1817 6 c59 -29 124 -93 154 -153 24 -47 45 -146 40
-193 l-3 -35 -267 -3 -267 -2 13 -44 c29 -95 94 -146 186 -146 59 0 122 28
146 65 15 23 22 25 95 25 90 0 93 -4 59 -70 -29 -57 -85 -109 -149 -139 -48
-22 -69 -26 -151 -26 -84 0 -102 3 -152 28 -142 70 -218 212 -205 386 7 97 33
157 99 227 84 89 152 116 271 110 58 -3 92 -11 131 -30z m3481 -1 c111 -54
185 -172 193 -307 l5 -78 -272 0 c-149 0 -271 -4 -271 -9 0 -21 25 -79 47
-109 33 -45 91 -72 153 -72 62 0 106 18 143 57 26 28 33 30 108 32 43 1 79 0
79 -4 0 -3 -10 -26 -22 -52 -30 -63 -88 -119 -157 -151 -49 -24 -69 -27 -156
-27 -90 0 -106 3 -153 28 -74 39 -124 87 -160 154 -118 223 -13 495 217 560
70 20 182 10 246 -22z m-1600 -3 c47 -24 95 -72 121 -122 17 -31 19 -65 22
-307 l3 -273 -85 0 -86 0 0 243 c0 222 -2 245 -20 274 -41 69 -125 90 -200 51
-80 -41 -84 -57 -90 -332 l-5 -238 -80 0 -80 0 -3 361 -2 361 85 0 85 0 0 -48
0 -49 43 42 c24 22 59 46 78 53 52 17 167 9 214 -16z m2288 16 c-2 -5 -3 -41
-3 -80 l0 -73 -60 0 c-64 -1 -95 -17 -134 -69 -19 -25 -21 -45 -26 -263 l-5
-235 -83 0 -83 0 -2 361 -2 361 88 0 89 0 -4 -50 c-1 -28 0 -50 5 -50 4 0 7 6
7 13 0 19 49 63 90 81 35 16 127 18 123 4z m-5543 -100 c17 -57 55 -177 84
-268 l53 -165 46 145 c25 80 63 200 83 268 l38 122 93 0 c51 0 93 -4 93 -8 0
-4 -58 -165 -129 -357 l-129 -350 -102 0 -102 0 -127 358 -127 357 97 0 97 0
32 -102z m760 -258 l0 -360 -85 0 -85 0 0 360 0 360 85 0 85 0 0 -360z m1830
0 l0 -360 -87 0 -88 0 0 360 0 360 88 0 87 0 0 -360z"/>
    <path d="M4885 8163 c-220 -26 -405 -78 -584 -164 -425 -203 -722 -534 -874
-975 -149 -429 -117 -893 89 -1307 143 -287 325 -496 583 -668 192 -128 384
-208 610 -256 114 -24 146 -27 341 -27 195 0 227 3 341 27 301 64 567 193 782
382 539 471 738 1210 505 1874 -41 118 -135 297 -216 411 -85 121 -271 308
-387 390 -298 212 -653 322 -1025 318 -74 0 -148 -3 -165 -5z"/>
    <path d="M7255 2635 c-80 -43 -115 -106 -115 -210 0 -84 21 -137 74 -182 44
-39 70 -47 141 -41 38 3 64 12 89 32 58 44 71 77 71 186 0 83 -3 101 -25 139
-36 64 -69 84 -143 89 -44 2 -71 -2 -92 -13z"/>
    <path d="M2785 2638 c-72 -39 -125 -129 -125 -213 0 -141 115 -246 237 -216
102 26 153 98 153 217 -1 104 -47 184 -123 213 -36 14 -116 14 -142 -1z"/>
    <path d="M4595 2646 c-47 -21 -95 -85 -95 -127 0 -5 77 -9 185 -9 l185 0 -15
37 c-19 44 -50 79 -87 99 -34 18 -133 18 -173 0z"/>
    <path d="M8075 2646 c-39 -17 -70 -52 -90 -99 l-15 -37 190 0 190 0 -15 37
c-19 44 -50 79 -87 99 -34 18 -133 18 -173 0z"/>
  </g>
</svg>
